<mxfile host="app.diagrams.net" modified="2022-03-15T01:43:25.716Z" agent="5.0 (Windows NT 10.0; Win64; x64) AppleWebKit/537.36 (KHTML, like Gecko) Chrome/99.0.4844.51 Safari/537.36" etag="hHC7cvH39mi0dGxi3a5i" version="17.1.2" type="github">
  <diagram id="BQzLJCN88EPjjvsV7vlR" name="Page-1">
    <mxGraphModel dx="652" dy="368" grid="1" gridSize="10" guides="1" tooltips="1" connect="1" arrows="1" fold="1" page="1" pageScale="1" pageWidth="827" pageHeight="1169" math="0" shadow="0">
      <root>
        <mxCell id="0" />
        <mxCell id="1" parent="0" />
        <mxCell id="1PRlm6LPlb2SJdbiWRgC-1" value="计算机" style="rounded=1;whiteSpace=wrap;html=1;" vertex="1" parent="1">
          <mxGeometry x="20" y="160" width="245" height="250" as="geometry" />
        </mxCell>
        <mxCell id="1PRlm6LPlb2SJdbiWRgC-2" value="服务器" style="rounded=1;whiteSpace=wrap;html=1;" vertex="1" parent="1">
          <mxGeometry x="480" y="160" width="180" height="250" as="geometry" />
        </mxCell>
        <mxCell id="1PRlm6LPlb2SJdbiWRgC-3" value="浏览器程序(本身端口号1027)&lt;br&gt;访问 192.168.3.186(默认端口号80,访问端口号)&lt;br&gt;进程A" style="rounded=0;whiteSpace=wrap;html=1;" vertex="1" parent="1">
          <mxGeometry x="20" y="190" width="160" height="80" as="geometry" />
        </mxCell>
        <mxCell id="1PRlm6LPlb2SJdbiWRgC-7" value="聊天工具(本身端口号1028,源端口号)&lt;br&gt;访问 192.168.3.186(默认端口号8080,访问端口号)&lt;br&gt;进程B" style="rounded=0;whiteSpace=wrap;html=1;" vertex="1" parent="1">
          <mxGeometry x="20" y="300" width="160" height="80" as="geometry" />
        </mxCell>
        <mxCell id="1PRlm6LPlb2SJdbiWRgC-8" value="网页服务&lt;br&gt;(默认监听80端口)" style="rounded=0;whiteSpace=wrap;html=1;" vertex="1" parent="1">
          <mxGeometry x="480" y="190" width="180" height="60" as="geometry" />
        </mxCell>
        <mxCell id="1PRlm6LPlb2SJdbiWRgC-9" value="聊天工具服务&lt;br&gt;(指定监听8080端口)" style="rounded=0;whiteSpace=wrap;html=1;" vertex="1" parent="1">
          <mxGeometry x="480" y="320" width="180" height="60" as="geometry" />
        </mxCell>
        <mxCell id="1PRlm6LPlb2SJdbiWRgC-10" value="TPC/IP" style="ellipse;shape=cloud;whiteSpace=wrap;html=1;" vertex="1" parent="1">
          <mxGeometry x="294" y="20" width="120" height="80" as="geometry" />
        </mxCell>
        <mxCell id="1PRlm6LPlb2SJdbiWRgC-11" value="" style="endArrow=classic;startArrow=classic;html=1;rounded=0;entryX=0.13;entryY=0.77;entryDx=0;entryDy=0;entryPerimeter=0;exitX=1.001;exitY=0.459;exitDx=0;exitDy=0;exitPerimeter=0;" edge="1" parent="1" source="1PRlm6LPlb2SJdbiWRgC-1" target="1PRlm6LPlb2SJdbiWRgC-10">
          <mxGeometry width="50" height="50" relative="1" as="geometry">
            <mxPoint x="265" y="300" as="sourcePoint" />
            <mxPoint x="315" y="250" as="targetPoint" />
          </mxGeometry>
        </mxCell>
        <mxCell id="1PRlm6LPlb2SJdbiWRgC-12" value="" style="endArrow=classic;startArrow=classic;html=1;rounded=0;exitX=-0.014;exitY=0.479;exitDx=0;exitDy=0;exitPerimeter=0;entryX=0.96;entryY=0.7;entryDx=0;entryDy=0;entryPerimeter=0;" edge="1" parent="1" source="1PRlm6LPlb2SJdbiWRgC-2" target="1PRlm6LPlb2SJdbiWRgC-10">
          <mxGeometry width="50" height="50" relative="1" as="geometry">
            <mxPoint x="364" y="140" as="sourcePoint" />
            <mxPoint x="430" y="80" as="targetPoint" />
          </mxGeometry>
        </mxCell>
        <mxCell id="1PRlm6LPlb2SJdbiWRgC-13" value="网卡" style="ellipse;whiteSpace=wrap;html=1;aspect=fixed;" vertex="1" parent="1">
          <mxGeometry x="250" y="265" width="40" height="40" as="geometry" />
        </mxCell>
        <mxCell id="1PRlm6LPlb2SJdbiWRgC-14" value="网卡" style="ellipse;whiteSpace=wrap;html=1;aspect=fixed;" vertex="1" parent="1">
          <mxGeometry x="460" y="265" width="40" height="40" as="geometry" />
        </mxCell>
        <mxCell id="1PRlm6LPlb2SJdbiWRgC-15" value="监听1027端口" style="rounded=0;whiteSpace=wrap;html=1;" vertex="1" parent="1">
          <mxGeometry x="180" y="190" width="70" height="80" as="geometry" />
        </mxCell>
        <mxCell id="1PRlm6LPlb2SJdbiWRgC-16" value="监听1028端口" style="rounded=0;whiteSpace=wrap;html=1;" vertex="1" parent="1">
          <mxGeometry x="180" y="300" width="70" height="80" as="geometry" />
        </mxCell>
        <mxCell id="1PRlm6LPlb2SJdbiWRgC-19" value="" style="endArrow=classic;html=1;rounded=0;entryX=0.5;entryY=1;entryDx=0;entryDy=0;exitX=0;exitY=0.5;exitDx=0;exitDy=0;" edge="1" parent="1" source="1PRlm6LPlb2SJdbiWRgC-13" target="1PRlm6LPlb2SJdbiWRgC-15">
          <mxGeometry width="50" height="50" relative="1" as="geometry">
            <mxPoint x="320" y="290" as="sourcePoint" />
            <mxPoint x="370" y="240" as="targetPoint" />
          </mxGeometry>
        </mxCell>
        <mxCell id="1PRlm6LPlb2SJdbiWRgC-20" value="" style="endArrow=classic;html=1;rounded=0;entryX=0.5;entryY=0;entryDx=0;entryDy=0;exitX=0;exitY=0.5;exitDx=0;exitDy=0;" edge="1" parent="1" source="1PRlm6LPlb2SJdbiWRgC-13" target="1PRlm6LPlb2SJdbiWRgC-16">
          <mxGeometry width="50" height="50" relative="1" as="geometry">
            <mxPoint x="320" y="290" as="sourcePoint" />
            <mxPoint x="370" y="240" as="targetPoint" />
          </mxGeometry>
        </mxCell>
        <mxCell id="1PRlm6LPlb2SJdbiWRgC-21" value="" style="endArrow=classic;html=1;rounded=0;entryX=0.5;entryY=1;entryDx=0;entryDy=0;" edge="1" parent="1" target="1PRlm6LPlb2SJdbiWRgC-8">
          <mxGeometry width="50" height="50" relative="1" as="geometry">
            <mxPoint x="500" y="280" as="sourcePoint" />
            <mxPoint x="550" y="230" as="targetPoint" />
          </mxGeometry>
        </mxCell>
        <mxCell id="1PRlm6LPlb2SJdbiWRgC-22" value="" style="endArrow=classic;html=1;rounded=0;entryX=0.5;entryY=0;entryDx=0;entryDy=0;exitX=1;exitY=0.5;exitDx=0;exitDy=0;" edge="1" parent="1" source="1PRlm6LPlb2SJdbiWRgC-14" target="1PRlm6LPlb2SJdbiWRgC-9">
          <mxGeometry width="50" height="50" relative="1" as="geometry">
            <mxPoint x="320" y="290" as="sourcePoint" />
            <mxPoint x="370" y="240" as="targetPoint" />
          </mxGeometry>
        </mxCell>
      </root>
    </mxGraphModel>
  </diagram>
</mxfile>
